# xmcd CD database file
#
# Track frame offsets:
#	150
#	18205
#	36222
#
# Disc length: 720 seconds
#
# Revision: 0
# Processed by: cddbd v1.5.1PL2 Copyright (c) Steve Scherf et al.
# Submitted via: CDex 1.51
#
DISCID=1802ce03
DTITLE=相川七瀬 - EVERYBODY GOES
DYEAR=2006
DGENRE=Rock
TTITLE0=EVERYBODY GOES
TTITLE1=EVERYBODY GOES (English Ver.)
TTITLE2=EVERYBODY GOES (Instrumental)
EXTD=YEAR: 2006
EXTT0=
EXTT1=
EXTT2=
PLAYORDER=
